<?xml version="1.0" encoding="UTF-8"?>
<svg width="121px" height="46px" viewBox="0 0 121 46" version="1.1" xmlns="http://www.w3.org/2000/svg" xmlns:xlink="http://www.w3.org/1999/xlink">
    <title>Group 4</title>
    <defs>
        <polygon id="path-1" points="0 0.115050435 16.607039 0.115050435 16.607039 25.2043478 0 25.2043478"></polygon>
        <polygon id="path-3" points="0.390090698 0.0179357143 5.63939302 0.0179357143 5.63939302 4.56125143 0.390090698 4.56125143"></polygon>
        <polygon id="path-5" points="0.00355215947 0.0179357143 4.50269103 0.0179357143 4.50269103 4.56125143 0.00355215947 4.56125143"></polygon>
    </defs>
    <g id="UI" stroke="none" stroke-width="1" fill="none" fill-rule="evenodd">
        <g id="Group-4">
            <g id="Group-15" transform="translate(75.000000, 0.000000)">
                <path d="M0,23 C0,35.7025833 10.2976189,46 23,46 C35.7027628,46 46,35.7025833 46,23 C46,10.2974167 35.7027628,0 23,0 C10.2976189,0 0,10.2974167 0,23 Z" id="Fill-1" fill="#89D700"></path>
                <path d="M31.8733191,31.4080064 C32.0908246,31.7855469 33.1487457,33.7421016 33.4369108,33.7333333 C34.7320748,33.3286049 31.3885702,27.0672474 30.9721124,26.4869749 C28.9036397,22.9211875 25.683296,19.9100441 21.7997779,18.2503196 C16.7738629,16.1021259 9.91553357,16.7852943 6.13333333,12.2666667 C6.11807026,14.1157352 7.45152463,15.8833284 8.74274111,17.1035452 C9.48920713,17.8077519 10.3229122,18.4224505 11.1984604,18.9660017 C11.5904439,19.2092801 12.4403335,19.3699356 12.3716476,19.8748529 C12.2536183,20.7458353 12.6262592,21.6179653 13.1674569,22.2950135 C15.7739694,25.5521128 20.7675153,25.643916 24.5262934,26.5982863 C25.4057891,26.8212914 26.2619947,27.098996 27.0621463,27.4283398 C28.3766528,27.9688308 30.1048539,29.3489382 30.4917057,29.7260962 C31.0439563,30.2639096 31.5816013,30.8981164 31.8733191,31.4080064" id="Fill-3" fill="#FBFFFF"></path>
                <path d="M32.7380756,19.0967746 C31.994655,17.9755262 31.1072472,16.947353 30.0458228,16.0836006 C29.2450384,15.4320742 27.255782,14.0942539 27.4467383,16.0861357 C26.7529817,15.4932793 26.0026313,14.9511252 25.2095467,14.4843006 C23.954086,13.7454935 21.8497169,13.1247507 22.4387554,15.316545 C20.0772113,15.1557458 17.6232689,15.3625394 15.3333333,15.9213528 C16.6580926,16.42548 18.1437788,16.5761387 19.5339868,16.8274779 C21.8739714,17.2519299 24.213956,17.9516236 26.2528764,19.1395095 C29.2596681,20.8927277 31.7344001,23.6871569 33.3702333,26.6087043 C33.5434799,26.9169028 34.5055763,29.3285285 34.9625624,29.1206484 C35.346015,28.399225 35.2851861,26.5612613 35.2131925,25.7637843 C35.1123245,24.6693357 34.7981706,23.5955303 34.4428225,22.5521464 C34.0301105,21.3396336 33.4549317,20.1767367 32.7380756,19.0967746" id="Fill-5" fill="#139E50"></path>
            </g>
            <g id="Group-12" transform="translate(0.000000, 8.000000)">
                <g id="Group-3" transform="translate(0.000000, 4.650000)">
                    <mask id="mask-2" fill="white">
                        <use xlink:href="#path-1"></use>
                    </mask>
                    <g id="Clip-2"></g>
                    <path d="M6.85528314,12.99892 C6.03994012,11.7327722 5.63262035,10.3428265 5.63262035,8.82834174 C5.63262035,7.49473522 6.06667267,6.47766565 6.93548081,5.77713304 C7.80499244,5.07585913 9.00092267,4.72596348 10.5246785,4.72596348 C11.640411,4.72596348 12.9594517,5.07585913 14.4832076,5.77713304 L15.9309866,1.80967217 C14.5577773,1.22255913 13.4209401,0.792602609 12.520475,0.521285217 C11.6186029,0.25070913 10.6850738,0.115050435 9.7191843,0.115050435 C7.89574244,0.115050435 6.32414942,0.487926522 5.00440523,1.2336787 C3.68536453,1.97943087 2.68148663,3.00762 1.99628895,4.31898739 C1.30827733,5.63035478 0.965678488,7.11148087 0.965678488,8.76088304 C0.965678488,10.7053243 1.67409128,12.750583 3.08950988,14.8974004 C1.03039942,16.4578461 -0.000211046512,18.6046635 -0.000211046512,21.3393352 C-0.000211046512,22.4468439 0.36419593,23.7344896 1.09512035,25.2044961 L5.8893936,25.2044961 L5.92175407,25.1370374 C5.40680058,24.4365048 5.04169012,23.8367896 4.82782965,23.3401157 C4.61256221,22.8427004 4.50563198,22.2088852 4.50563198,21.4408939 C4.50563198,20.4905417 4.67165523,19.7121722 5.00440523,19.1013374 C5.33785872,18.4912439 5.8893936,17.9374896 6.66323081,17.4400743 C7.58480058,16.85222 8.67942849,16.4904635 9.94570756,16.3548048 C11.2105797,16.2198874 13.1311029,16.1516874 15.7058703,16.1516874 L16.607039,12.0493091 C14.096289,12.0493091 12.1061203,12.121957 10.6365331,12.2702178 C9.16694593,12.4169961 7.90629477,12.6594026 6.85528314,12.99892" id="Fill-1" fill="#FFFFFF" mask="url(#mask-2)"></path>
                </g>
                <path d="M51.7401115,16.3245765 C50.9223551,17.2133659 49.9499634,17.9456526 48.8236328,18.5228926 C47.8895516,17.6341032 46.9540773,16.5407685 46.0199961,15.2428885 C45.0852183,13.9435527 44.3301519,12.706818 43.7575831,11.5305005 C45.6048489,10.6657324 47.1776717,10.2318926 48.4739618,10.2318926 C49.726369,10.2318926 50.789313,10.525972 51.6607042,11.1148586 C52.5313988,11.7022894 52.9667461,12.4957214 52.9667461,13.4944266 C52.9667461,14.4931317 52.5578679,15.437243 51.7401115,16.3245765 L51.7401115,16.3245765 Z M61.5699057,19.2544514 L58.3838599,19.2544514 C58.3685357,19.2544514 58.3587839,19.2602747 58.3441562,19.2617306 C58.3253492,19.2602747 58.310025,19.2544514 58.2877352,19.2544514 C56.5254493,19.2544514 55.133731,19.1656452 54.1139734,18.9880329 C55.133731,18.1006994 55.9403425,17.0968988 56.5358976,15.9759032 C57.1307562,14.8541797 57.4281855,13.7499262 57.4281855,12.6631428 C57.4281855,11.4868253 57.0297556,10.3651018 56.2335924,9.30015598 C55.4367327,8.23521016 54.3682162,7.37408171 53.0308293,6.72041025 C51.6920492,6.06455503 50.2585376,5.7377193 48.7289012,5.7377193 C47.4542043,5.7377193 46.200404,5.92042702 44.9675004,6.28657039 C43.7359899,6.65271376 42.3017817,7.2030207 40.6662689,7.93530744 L39.6785529,12.2627872 C41.398349,15.2370652 42.8652953,17.4572188 44.0766056,18.9210644 C42.8228054,19.1438077 41.0061881,19.2544514 38.6267538,19.2544514 C38.6204848,19.2544514 38.6156089,19.2566351 38.6086433,19.2566351 C38.6037675,19.2566351 38.6009812,19.2544514 38.5954088,19.2544514 C37.1716489,19.2544514 36.1407465,18.8439049 35.503398,18.022812 C35.6315642,17.4230066 35.6949508,16.8020915 35.6949508,16.157883 L35.6949508,8.84884606 L31.2342081,8.84884606 L31.2342081,15.4263242 C31.2342081,16.5808041 30.9312063,17.5067173 30.3258994,18.2055198 C29.7205925,18.9043222 28.9926918,19.2544514 28.1428938,19.2544514 L27.5055454,19.2544514 L26.8688934,19.2544514 C26.0608888,19.2544514 25.450706,19.0156939 25.0362554,18.5389068 C24.6218047,18.0621197 24.4149277,17.2468502 24.4149277,16.0923703 L24.4149277,1.55 L19.9534884,1.55 L19.9534884,16.824657 C19.9534884,18.7776643 20.4320221,20.3368673 21.3876966,21.501538 C22.343371,22.6669367 23.724641,23.25 25.5308099,23.25 L27.5055454,23.25 L29.4809773,23.25 C31.3937193,23.25 32.9219625,22.5395508 34.0698863,21.1186525 C34.728828,21.8291017 35.4727495,22.3619385 36.3009543,22.7164352 C37.1284625,23.0723877 37.8939772,23.25 38.5954088,23.25 C38.6009812,23.25 38.6037675,23.2478162 38.6086433,23.2478162 C38.6156089,23.2478162 38.6204848,23.25 38.6267538,23.25 C42.6208042,23.25 46.1683624,22.8387256 49.2708216,22.0176328 C51.883602,22.8387256 54.8892399,23.25 58.2877352,23.25 C58.310025,23.25 58.3253492,23.2434487 58.3441562,23.2419929 C58.3587839,23.2434487 58.3685357,23.25 58.3838599,23.25 L66,23.25 L66,8.84884606 L61.5699057,8.84884606 L61.5699057,19.2544514 Z" id="Fill-4" fill="#FFFFFF"></path>
                <g id="Group-8" transform="translate(30.697674, 0.000000)">
                    <mask id="mask-4" fill="white">
                        <use xlink:href="#path-3"></use>
                    </mask>
                    <g id="Clip-7"></g>
                    <path d="M3.01474186,0.0175371429 C1.56504419,0.0175371429 0.390090698,1.03455857 0.390090698,2.28939429 C0.390090698,3.54489429 1.56504419,4.56125143 3.01474186,4.56125143 C4.46520698,4.56125143 5.63939302,3.54489429 5.63939302,2.28939429 C5.63939302,1.03455857 4.46520698,0.0175371429 3.01474186,0.0175371429" id="Fill-6" fill="#FFFFFF" mask="url(#mask-4)"></path>
                </g>
                <g id="Group-11" transform="translate(61.395349, 0.000000)">
                    <mask id="mask-6" fill="white">
                        <use xlink:href="#path-5"></use>
                    </mask>
                    <g id="Clip-10"></g>
                    <path d="M2.25325316,0.0175371429 C1.01065515,0.0175371429 0.00355215947,1.03455857 0.00355215947,2.28939429 C0.00355215947,3.54489429 1.01065515,4.56125143 2.25325316,4.56125143 C3.49585116,4.56125143 4.50295415,3.54489429 4.50295415,2.28939429 C4.50295415,1.03455857 3.49585116,0.0175371429 2.25325316,0.0175371429" id="Fill-9" fill="#FFFFFF" mask="url(#mask-6)"></path>
                </g>
            </g>
        </g>
    </g>
</svg>